<?xml version="1.0" encoding="UTF-8" standalone="no"?>
<svg
   fill="#ffffff"
   version="1.1"
   width="32"
   height="32"
   viewBox="0 0 15.62816 15.62816"
   xml:space="preserve"
   xmlns="http://www.w3.org/2000/svg"
   xmlns:svg="http://www.w3.org/2000/svg"
>
<path
   d="M 15.188339,13.062241 10.613614,8.4875138 c 1.233041,-2.1675636 0.926641,-4.9798081 -0.9200416,-6.8265311 -2.2146828,-2.21464359 -5.8181274,-2.21464359 -8.0327303,0 -2.21460281,2.2146436 -2.21464281,5.8180894 0,8.032733 1.8466824,1.8466833 4.658966,2.1530833 6.8265288,0.9200423 l 4.5746861,4.574766 c 0.5862,0.586201 1.540122,0.586161 2.126282,0 0.586241,-0.58616 0.586281,-1.540042 0,-2.126283 z M 8.562171,8.5623539 c -1.5908021,1.5908421 -4.1791654,1.5908421 -5.7700074,0 -1.5908021,-1.5908027 -1.5908021,-4.1792068 0,-5.7700094 1.590842,-1.5908026 4.1792053,-1.5908026 5.7700074,0 1.590842,1.5908026 1.590802,4.1792467 0,5.7700094 z"
   style="stroke-width:0.0400001" />
</svg>
